# xmcd CD database file
#
# Track frame offsets:
#	150
#	19865
#	36220
#	50853
#	63117
#	78381
#	95694
#	113073
#	126561
#	145962
#	165408
#	182541
#	200677
#	217194
#	233915
#	247691
#	261932
#	278210
#
# Disc length: 3840 seconds
#
# Revision: 1
# Processed by: cddbd v1.5.1PL0 Copyright (c) Steve Scherf et al.
# Submitted via: CDex 1.51
#
DISCID=0a0efe12
DTITLE=Milionário and José Rico - O Melhor de
DYEAR=2002
DGENRE=Country
TTITLE0=Sonhei com você
TTITLE1=Sonho de um Caminhoneiro
TTITLE2=Boneca Cobiçada
TTITLE3=Águas da Saudade
TTITLE4=Jogo do Amor
TTITLE5=Meu Mundo Vazio
TTITLE6=Praia Deserta
TTITLE7=Ilusão Perdida
TTITLE8=Sonho Alto
TTITLE9=Mãe de Leite
TTITLE10=Heroi da Velocidade
TTITLE11=Vai e Vem do Carreiro
TTITLE12=Quem Disse que te Esqueci
TTITLE13=Aprendi a Viver
TTITLE14=Vá Pro Inferno com seu Amor
TTITLE15=Denguinho
TTITLE16=Viva a Vida
TTITLE17=Estrada da Vida
EXTD=YEAR: 2002
EXTT0=
EXTT1=
EXTT2=
EXTT3=
EXTT4=
EXTT5=
EXTT6=
EXTT7=
EXTT8=
EXTT9=
EXTT10=
EXTT11=
EXTT12=
EXTT13=
EXTT14=
EXTT15=
EXTT16=
EXTT17=
PLAYORDER=
